<svg width="63" height="16" viewBox="0 0 63 16" fill="none" xmlns="http://www.w3.org/2000/svg">
<path d="M0.166667 8C0.166667 10.9455 2.55448 13.3333 5.5 13.3333C8.44552 13.3333 10.8333 10.9455 10.8333 8C10.8333 5.05448 8.44552 2.66667 5.5 2.66667C2.55448 2.66667 0.166667 5.05448 0.166667 8ZM62.2071 8.70711C62.5976 8.31658 62.5976 7.68342 62.2071 7.29289L55.8432 0.928933C55.4526 0.538408 54.8195 0.538408 54.4289 0.928933C54.0384 1.31946 54.0384 1.95262 54.4289 2.34315L60.0858 8L54.4289 13.6569C54.0384 14.0474 54.0384 14.6805 54.4289 15.0711C54.8195 15.4616 55.4526 15.4616 55.8432 15.0711L62.2071 8.70711ZM5.5 9H61.5V7H5.5V9Z" fill="#081F32"/>
</svg>
