<svg width="24" height="25" viewBox="0 0 24 25" fill="none" xmlns="http://www.w3.org/2000/svg">
<path d="M12 3.275C15 3.275 15.36 3.28625 16.5458 3.34025C17.2593 3.34867 17.9662 3.47984 18.6353 3.728C19.1237 3.90832 19.5656 4.19588 19.9283 4.5695C20.3019 4.93218 20.5894 5.37402 20.7698 5.8625C21.0179 6.5316 21.1491 7.23841 21.1575 7.952C21.2115 9.14 21.225 9.5 21.225 12.5C21.225 15.5 21.2138 15.86 21.1598 17.0458C21.1513 17.7593 21.0202 18.4662 20.772 19.1353C20.5847 19.6202 20.2981 20.0606 19.9305 20.4282C19.5629 20.7958 19.1225 21.0825 18.6375 21.2698C17.9684 21.5179 17.2616 21.6491 16.548 21.6575C15.3623 21.7115 15.006 21.7228 12.0023 21.7228C8.9985 21.7228 8.64225 21.7115 7.4565 21.6575C6.74291 21.6491 6.0361 21.5179 5.367 21.2698C4.87852 21.0894 4.43668 20.8019 4.074 20.4282C3.70038 20.0656 3.41282 19.6237 3.2325 19.1353C2.98434 18.4662 2.85317 17.7593 2.84475 17.0458C2.7885 15.86 2.775 15.5037 2.775 12.5C2.775 9.49625 2.78625 9.14 2.84025 7.95425C2.84867 7.24066 2.97984 6.53385 3.228 5.86475C3.40898 5.37606 3.69731 4.9342 4.07175 4.57175C4.43443 4.19813 4.87627 3.91057 5.36475 3.73025C6.03385 3.48209 6.74066 3.35092 7.45425 3.3425C8.64 3.2885 9 3.275 12 3.275ZM12 1.25C8.9445 1.25 8.56125 1.26275 7.362 1.3175C6.42842 1.33728 5.5049 1.51478 4.6305 1.8425C3.88032 2.12483 3.20059 2.56707 2.6385 3.1385C2.06626 3.70037 1.62324 4.38012 1.34025 5.1305C1.01253 6.0049 0.83503 6.92842 0.81525 7.862C0.76275 9.06125 0.75 9.4445 0.75 12.5C0.75 15.5555 0.76275 15.9388 0.8175 17.138C0.83728 18.0716 1.01478 18.9951 1.3425 19.8695C1.62549 20.6199 2.06851 21.2996 2.64075 21.8615C3.20262 22.4337 3.88237 22.8768 4.63275 23.1597C5.50715 23.4875 6.43067 23.665 7.36425 23.6847C8.56425 23.7395 8.94675 23.7523 12.0023 23.7523C15.0578 23.7523 15.441 23.7395 16.6403 23.6847C17.5738 23.665 18.4974 23.4875 19.3718 23.1597C20.1188 22.8702 20.7972 22.428 21.3638 21.8615C21.9303 21.295 22.3724 20.6165 22.662 19.8695C22.9897 18.9951 23.1672 18.0716 23.187 17.138C23.2418 15.938 23.2545 15.5555 23.2545 12.5C23.2545 9.4445 23.2418 9.06125 23.187 7.862C23.1672 6.92842 22.9897 6.0049 22.662 5.1305C22.379 4.38012 21.936 3.70037 21.3638 3.1385C20.8019 2.56626 20.1221 2.12324 19.3718 1.84025C18.4974 1.51253 17.5738 1.33503 16.6403 1.31525C15.4388 1.26275 15.0555 1.25 12 1.25Z" fill="#F4F6FA"/>
<path d="M12.0001 6.7251C10.8579 6.7251 9.74138 7.0638 8.79168 7.69836C7.84199 8.33293 7.10179 9.23486 6.6647 10.2901C6.2276 11.3453 6.11324 12.5065 6.33607 13.6267C6.55889 14.747 7.10891 15.776 7.91656 16.5836C8.72421 17.3913 9.75321 17.9413 10.8735 18.1641C11.9937 18.387 13.1549 18.2726 14.2101 17.8355C15.2653 17.3984 16.1673 16.6582 16.8018 15.7085C17.4364 14.7588 17.7751 13.6423 17.7751 12.5001C17.7751 10.9685 17.1667 9.49958 16.0836 8.41656C15.0006 7.33353 13.5317 6.7251 12.0001 6.7251ZM12.0001 16.2501C11.2584 16.2501 10.5334 16.0302 9.91671 15.6181C9.30003 15.2061 8.81938 14.6204 8.53555 13.9352C8.25172 13.2499 8.17746 12.4959 8.32215 11.7685C8.46685 11.0411 8.824 10.3729 9.34845 9.84845C9.8729 9.324 10.5411 8.96685 11.2685 8.82215C11.9959 8.67746 12.7499 8.75172 13.4352 9.03555C14.1204 9.31938 14.7061 9.80002 15.1181 10.4167C15.5302 11.0334 15.7501 11.7584 15.7501 12.5001C15.7501 13.4947 15.355 14.4485 14.6518 15.1517C13.9485 15.855 12.9947 16.2501 12.0001 16.2501Z" fill="#F4F6FA"/>
<path d="M18.0053 7.84453C18.7509 7.84453 19.3553 7.24012 19.3553 6.49453C19.3553 5.74895 18.7509 5.14453 18.0053 5.14453C17.2597 5.14453 16.6553 5.74895 16.6553 6.49453C16.6553 7.24012 17.2597 7.84453 18.0053 7.84453Z" fill="#F4F6FA"/>
</svg>
