<svg width="132" height="30" viewBox="0 0 132 30" fill="none" xmlns="http://www.w3.org/2000/svg">
<path d="M0.32 22.92L5.6 9.72H8.192L2.912 22.92H0.32Z" fill="#DB522A"/>
<path d="M4.256 22.92L9.568 9.72H11.856L6.544 22.92H4.256Z" fill="#0A142F"/>
<path d="M8.32 22.92L13.6 9.72H16.192L10.912 22.92H8.32Z" fill="#DB522A"/>
<path d="M20.152 22V10.08H25.176C25.9653 10.08 26.6373 10.2187 27.192 10.496C27.7573 10.7627 28.1893 11.1467 28.488 11.648C28.7973 12.1387 28.952 12.736 28.952 13.44C28.952 13.984 28.8027 14.496 28.504 14.976C28.216 15.4453 27.752 15.8347 27.112 16.144V15.136C27.6987 15.36 28.1627 15.6373 28.504 15.968C28.8453 16.2987 29.0853 16.6667 29.224 17.072C29.3627 17.4773 29.432 17.904 29.432 18.352C29.432 19.4933 29.0533 20.3893 28.296 21.04C27.5493 21.68 26.5093 22 25.176 22H20.152ZM22.328 20.08H25.4C25.9653 20.08 26.4133 19.9253 26.744 19.616C27.0853 19.296 27.256 18.8747 27.256 18.352C27.256 17.8293 27.0853 17.408 26.744 17.088C26.4133 16.768 25.9653 16.608 25.4 16.608H22.328V20.08ZM22.328 14.704H25.288C25.736 14.704 26.0933 14.576 26.36 14.32C26.6267 14.0533 26.76 13.712 26.76 13.296C26.76 12.88 26.6267 12.5493 26.36 12.304C26.0933 12.0587 25.736 11.936 25.288 11.936H22.328V14.704ZM31.2145 22V10.08H39.1345V12H33.3905V15.056H38.8145V16.976H33.3905V20.08H39.1345V22H31.2145ZM42.8421 22V12H39.7541V10.08H48.0741V12H45.0341V22H42.8421ZM54.7896 22.192C53.915 22.192 53.099 22.0373 52.3416 21.728C51.5843 21.4187 50.923 20.9867 50.3576 20.432C49.7923 19.8773 49.3496 19.2267 49.0296 18.48C48.7203 17.7227 48.5656 16.9067 48.5656 16.032C48.5656 15.1467 48.7203 14.3307 49.0296 13.584C49.339 12.8373 49.7763 12.1867 50.3416 11.632C50.907 11.0773 51.5683 10.6507 52.3256 10.352C53.083 10.0427 53.9043 9.888 54.7896 9.888C55.675 9.888 56.4963 10.0427 57.2536 10.352C58.011 10.6613 58.6723 11.0933 59.2376 11.648C59.803 12.192 60.2403 12.8373 60.5496 13.584C60.8696 14.3307 61.0296 15.1467 61.0296 16.032C61.0296 16.9067 60.8696 17.7227 60.5496 18.48C60.2296 19.2267 59.787 19.8773 59.2216 20.432C58.6563 20.9867 57.995 21.4187 57.2376 21.728C56.491 22.0373 55.675 22.192 54.7896 22.192ZM54.7896 20.208C55.3763 20.208 55.915 20.1067 56.4056 19.904C56.8963 19.6907 57.323 19.3973 57.6856 19.024C58.059 18.6507 58.3416 18.208 58.5336 17.696C58.7363 17.184 58.8376 16.6293 58.8376 16.032C58.8376 15.4347 58.7363 14.8853 58.5336 14.384C58.3416 13.872 58.059 13.4293 57.6856 13.056C57.323 12.672 56.8963 12.3787 56.4056 12.176C55.915 11.9733 55.3763 11.872 54.7896 11.872C54.2136 11.872 53.6803 11.9733 53.1896 12.176C52.699 12.3787 52.267 12.672 51.8936 13.056C51.531 13.4293 51.2483 13.872 51.0456 14.384C50.843 14.8853 50.7416 15.4347 50.7416 16.032C50.7416 16.6293 50.843 17.184 51.0456 17.696C51.2483 18.208 51.531 18.6507 51.8936 19.024C52.267 19.3973 52.699 19.6907 53.1896 19.904C53.6803 20.1067 54.2136 20.208 54.7896 20.208ZM62.9645 22V10.08H64.6605L71.2205 18.912L70.3405 19.088V10.08H72.5165V22H70.8045L64.3405 13.104L65.1405 12.928V22H62.9645ZM74.8239 22V10.08H76.5199L83.0799 18.912L82.1999 19.088V10.08H84.3759V22H82.6639L76.1999 13.104L76.9999 12.928V22H74.8239ZM85.7073 22L89.8193 10.08H92.6353L96.7473 22H94.3793L93.5312 19.44H88.9233L88.0593 22H85.7073ZM89.5473 17.52H92.9073L90.9233 11.584H91.5313L89.5473 17.52ZM102.174 22.192C101.416 22.192 100.712 22.0533 100.062 21.776C99.4216 21.4987 98.867 21.1147 98.3976 20.624C97.939 20.1227 97.603 19.5413 97.3896 18.88L99.1976 18.096C99.4856 18.7787 99.9016 19.3173 100.446 19.712C100.99 20.096 101.603 20.288 102.286 20.288C102.67 20.288 103 20.2293 103.278 20.112C103.566 19.984 103.784 19.8133 103.934 19.6C104.094 19.3867 104.174 19.1307 104.174 18.832C104.174 18.48 104.067 18.192 103.854 17.968C103.651 17.7333 103.342 17.552 102.926 17.424L100.638 16.688C99.7096 16.4 99.011 15.968 98.5416 15.392C98.0723 14.816 97.8376 14.1387 97.8376 13.36C97.8376 12.6773 98.003 12.0747 98.3336 11.552C98.675 11.0293 99.1443 10.624 99.7416 10.336C100.35 10.0373 101.043 9.888 101.822 9.888C102.536 9.888 103.192 10.016 103.79 10.272C104.387 10.5173 104.899 10.864 105.326 11.312C105.763 11.7493 106.088 12.2667 106.302 12.864L104.51 13.664C104.275 13.0667 103.923 12.608 103.454 12.288C102.984 11.9573 102.44 11.792 101.822 11.792C101.459 11.792 101.139 11.856 100.862 11.984C100.584 12.1013 100.366 12.272 100.206 12.496C100.056 12.7093 99.9816 12.9653 99.9816 13.264C99.9816 13.5947 100.088 13.888 100.302 14.144C100.515 14.3893 100.84 14.5813 101.278 14.72L103.47 15.408C104.419 15.7173 105.128 16.144 105.598 16.688C106.078 17.232 106.318 17.904 106.318 18.704C106.318 19.3867 106.142 19.9893 105.79 20.512C105.438 21.0347 104.952 21.4453 104.334 21.744C103.715 22.0427 102.995 22.192 102.174 22.192ZM114.149 22.192C113.274 22.192 112.458 22.0373 111.701 21.728C110.944 21.4187 110.282 20.9867 109.717 20.432C109.152 19.8773 108.709 19.2267 108.389 18.48C108.08 17.7227 107.925 16.9067 107.925 16.032C107.925 15.1467 108.08 14.3307 108.389 13.584C108.698 12.8373 109.136 12.1867 109.701 11.632C110.266 11.0773 110.928 10.6507 111.685 10.352C112.442 10.0427 113.264 9.888 114.149 9.888C115.034 9.888 115.856 10.0427 116.613 10.352C117.37 10.6613 118.032 11.0933 118.597 11.648C119.162 12.192 119.6 12.8373 119.909 13.584C120.229 14.3307 120.389 15.1467 120.389 16.032C120.389 16.9067 120.229 17.7227 119.909 18.48C119.589 19.2267 119.146 19.8773 118.581 20.432C118.016 20.9867 117.354 21.4187 116.597 21.728C115.85 22.0373 115.034 22.192 114.149 22.192ZM114.149 20.208C114.736 20.208 115.274 20.1067 115.765 19.904C116.256 19.6907 116.682 19.3973 117.045 19.024C117.418 18.6507 117.701 18.208 117.893 17.696C118.096 17.184 118.197 16.6293 118.197 16.032C118.197 15.4347 118.096 14.8853 117.893 14.384C117.701 13.872 117.418 13.4293 117.045 13.056C116.682 12.672 116.256 12.3787 115.765 12.176C115.274 11.9733 114.736 11.872 114.149 11.872C113.573 11.872 113.04 11.9733 112.549 12.176C112.058 12.3787 111.626 12.672 111.253 13.056C110.89 13.4293 110.608 13.872 110.405 14.384C110.202 14.8853 110.101 15.4347 110.101 16.032C110.101 16.6293 110.202 17.184 110.405 17.696C110.608 18.208 110.89 18.6507 111.253 19.024C111.626 19.3973 112.058 19.6907 112.549 19.904C113.04 20.1067 113.573 20.208 114.149 20.208ZM126.58 22.192C125.823 22.192 125.119 22.0533 124.468 21.776C123.828 21.4987 123.273 21.1147 122.804 20.624C122.345 20.1227 122.009 19.5413 121.796 18.88L123.604 18.096C123.892 18.7787 124.308 19.3173 124.852 19.712C125.396 20.096 126.009 20.288 126.692 20.288C127.076 20.288 127.407 20.2293 127.684 20.112C127.972 19.984 128.191 19.8133 128.34 19.6C128.5 19.3867 128.58 19.1307 128.58 18.832C128.58 18.48 128.473 18.192 128.26 17.968C128.057 17.7333 127.748 17.552 127.332 17.424L125.044 16.688C124.116 16.4 123.417 15.968 122.948 15.392C122.479 14.816 122.244 14.1387 122.244 13.36C122.244 12.6773 122.409 12.0747 122.74 11.552C123.081 11.0293 123.551 10.624 124.148 10.336C124.756 10.0373 125.449 9.888 126.228 9.888C126.943 9.888 127.599 10.016 128.196 10.272C128.793 10.5173 129.305 10.864 129.732 11.312C130.169 11.7493 130.495 12.2667 130.708 12.864L128.916 13.664C128.681 13.0667 128.329 12.608 127.86 12.288C127.391 11.9573 126.847 11.792 126.228 11.792C125.865 11.792 125.545 11.856 125.268 11.984C124.991 12.1013 124.772 12.272 124.612 12.496C124.463 12.7093 124.388 12.9653 124.388 13.264C124.388 13.5947 124.495 13.888 124.708 14.144C124.921 14.3893 125.247 14.5813 125.684 14.72L127.876 15.408C128.825 15.7173 129.535 16.144 130.004 16.688C130.484 17.232 130.724 17.904 130.724 18.704C130.724 19.3867 130.548 19.9893 130.196 20.512C129.844 21.0347 129.359 21.4453 128.74 21.744C128.121 22.0427 127.401 22.192 126.58 22.192Z" fill="#0A142F"/>
</svg>
