<svg width="136" height="30" viewBox="0 0 136 30" fill="none" xmlns="http://www.w3.org/2000/svg">
<path d="M0.256 22.92L5.568 9.72H7.856L2.544 22.92H0.256ZM6.34975 22.92L11.6618 9.72H13.9498L8.63775 22.92H6.34975Z" fill="#DB522A"/>
<path d="M18.152 22V10.08H23.176C23.9653 10.08 24.6373 10.2187 25.192 10.496C25.7573 10.7627 26.1893 11.1467 26.488 11.648C26.7973 12.1387 26.952 12.736 26.952 13.44C26.952 13.984 26.8027 14.496 26.504 14.976C26.216 15.4453 25.752 15.8347 25.112 16.144V15.136C25.6987 15.36 26.1627 15.6373 26.504 15.968C26.8453 16.2987 27.0853 16.6667 27.224 17.072C27.3627 17.4773 27.432 17.904 27.432 18.352C27.432 19.4933 27.0533 20.3893 26.296 21.04C25.5493 21.68 24.5093 22 23.176 22H18.152ZM20.328 20.08H23.4C23.9653 20.08 24.4133 19.9253 24.744 19.616C25.0853 19.296 25.256 18.8747 25.256 18.352C25.256 17.8293 25.0853 17.408 24.744 17.088C24.4133 16.768 23.9653 16.608 23.4 16.608H20.328V20.08ZM20.328 14.704H23.288C23.736 14.704 24.0933 14.576 24.36 14.32C24.6267 14.0533 24.76 13.712 24.76 13.296C24.76 12.88 24.6267 12.5493 24.36 12.304C24.0933 12.0587 23.736 11.936 23.288 11.936H20.328V14.704ZM29.2145 22V10.08H37.1345V12H31.3905V15.056H36.8145V16.976H31.3905V20.08H37.1345V22H29.2145ZM40.8421 22V12H37.7541V10.08H46.0741V12H43.0341V22H40.8421ZM52.7896 22.192C51.915 22.192 51.099 22.0373 50.3416 21.728C49.5843 21.4187 48.923 20.9867 48.3576 20.432C47.7923 19.8773 47.3496 19.2267 47.0296 18.48C46.7203 17.7227 46.5656 16.9067 46.5656 16.032C46.5656 15.1467 46.7203 14.3307 47.0296 13.584C47.339 12.8373 47.7763 12.1867 48.3416 11.632C48.907 11.0773 49.5683 10.6507 50.3256 10.352C51.083 10.0427 51.9043 9.888 52.7896 9.888C53.675 9.888 54.4963 10.0427 55.2536 10.352C56.011 10.6613 56.6723 11.0933 57.2376 11.648C57.803 12.192 58.2403 12.8373 58.5496 13.584C58.8696 14.3307 59.0296 15.1467 59.0296 16.032C59.0296 16.9067 58.8696 17.7227 58.5496 18.48C58.2296 19.2267 57.787 19.8773 57.2216 20.432C56.6563 20.9867 55.995 21.4187 55.2376 21.728C54.491 22.0373 53.675 22.192 52.7896 22.192ZM52.7896 20.208C53.3763 20.208 53.915 20.1067 54.4056 19.904C54.8963 19.6907 55.323 19.3973 55.6856 19.024C56.059 18.6507 56.3416 18.208 56.5336 17.696C56.7363 17.184 56.8376 16.6293 56.8376 16.032C56.8376 15.4347 56.7363 14.8853 56.5336 14.384C56.3416 13.872 56.059 13.4293 55.6856 13.056C55.323 12.672 54.8963 12.3787 54.4056 12.176C53.915 11.9733 53.3763 11.872 52.7896 11.872C52.2136 11.872 51.6803 11.9733 51.1896 12.176C50.699 12.3787 50.267 12.672 49.8936 13.056C49.531 13.4293 49.2483 13.872 49.0456 14.384C48.843 14.8853 48.7416 15.4347 48.7416 16.032C48.7416 16.6293 48.843 17.184 49.0456 17.696C49.2483 18.208 49.531 18.6507 49.8936 19.024C50.267 19.3973 50.699 19.6907 51.1896 19.904C51.6803 20.1067 52.2136 20.208 52.7896 20.208ZM60.9645 22V10.08H62.6605L69.2205 18.912L68.3405 19.088V10.08H70.5165V22H68.8045L62.3405 13.104L63.1405 12.928V22H60.9645ZM73.6399 22V19.76H75.7519V22H73.6399ZM78.8708 22V10.08H80.5668L87.1267 18.912L86.2468 19.088V10.08H88.4228V22H86.7108L80.2468 13.104L81.0468 12.928V22H78.8708ZM89.7541 22L93.8661 10.08H96.6821L100.794 22H98.4261L97.5781 19.44H92.9701L92.1061 22H89.7541ZM93.5941 17.52H96.9541L94.9701 11.584H95.5781L93.5941 17.52ZM106.221 22.192C105.463 22.192 104.759 22.0533 104.109 21.776C103.469 21.4987 102.914 21.1147 102.445 20.624C101.986 20.1227 101.65 19.5413 101.437 18.88L103.245 18.096C103.533 18.7787 103.949 19.3173 104.493 19.712C105.037 20.096 105.65 20.288 106.333 20.288C106.717 20.288 107.047 20.2293 107.325 20.112C107.613 19.984 107.831 19.8133 107.981 19.6C108.141 19.3867 108.221 19.1307 108.221 18.832C108.221 18.48 108.114 18.192 107.901 17.968C107.698 17.7333 107.389 17.552 106.973 17.424L104.685 16.688C103.757 16.4 103.058 15.968 102.589 15.392C102.119 14.816 101.885 14.1387 101.885 13.36C101.885 12.6773 102.05 12.0747 102.381 11.552C102.722 11.0293 103.191 10.624 103.789 10.336C104.397 10.0373 105.09 9.888 105.869 9.888C106.583 9.888 107.239 10.016 107.837 10.272C108.434 10.5173 108.946 10.864 109.373 11.312C109.81 11.7493 110.135 12.2667 110.349 12.864L108.557 13.664C108.322 13.0667 107.97 12.608 107.501 12.288C107.031 11.9573 106.487 11.792 105.869 11.792C105.506 11.792 105.186 11.856 104.909 11.984C104.631 12.1013 104.413 12.272 104.253 12.496C104.103 12.7093 104.029 12.9653 104.029 13.264C104.029 13.5947 104.135 13.888 104.349 14.144C104.562 14.3893 104.887 14.5813 105.325 14.72L107.517 15.408C108.466 15.7173 109.175 16.144 109.645 16.688C110.125 17.232 110.365 17.904 110.365 18.704C110.365 19.3867 110.189 19.9893 109.837 20.512C109.485 21.0347 108.999 21.4453 108.381 21.744C107.762 22.0427 107.042 22.192 106.221 22.192ZM118.196 22.192C117.321 22.192 116.505 22.0373 115.748 21.728C114.991 21.4187 114.329 20.9867 113.764 20.432C113.199 19.8773 112.756 19.2267 112.436 18.48C112.127 17.7227 111.972 16.9067 111.972 16.032C111.972 15.1467 112.127 14.3307 112.436 13.584C112.745 12.8373 113.183 12.1867 113.748 11.632C114.313 11.0773 114.975 10.6507 115.732 10.352C116.489 10.0427 117.311 9.888 118.196 9.888C119.081 9.888 119.903 10.0427 120.66 10.352C121.417 10.6613 122.079 11.0933 122.644 11.648C123.209 12.192 123.647 12.8373 123.956 13.584C124.276 14.3307 124.436 15.1467 124.436 16.032C124.436 16.9067 124.276 17.7227 123.956 18.48C123.636 19.2267 123.193 19.8773 122.628 20.432C122.063 20.9867 121.401 21.4187 120.644 21.728C119.897 22.0373 119.081 22.192 118.196 22.192ZM118.196 20.208C118.783 20.208 119.321 20.1067 119.812 19.904C120.303 19.6907 120.729 19.3973 121.092 19.024C121.465 18.6507 121.748 18.208 121.94 17.696C122.143 17.184 122.244 16.6293 122.244 16.032C122.244 15.4347 122.143 14.8853 121.94 14.384C121.748 13.872 121.465 13.4293 121.092 13.056C120.729 12.672 120.303 12.3787 119.812 12.176C119.321 11.9733 118.783 11.872 118.196 11.872C117.62 11.872 117.087 11.9733 116.596 12.176C116.105 12.3787 115.673 12.672 115.3 13.056C114.937 13.4293 114.655 13.872 114.452 14.384C114.249 14.8853 114.148 15.4347 114.148 16.032C114.148 16.6293 114.249 17.184 114.452 17.696C114.655 18.208 114.937 18.6507 115.3 19.024C115.673 19.3973 116.105 19.6907 116.596 19.904C117.087 20.1067 117.62 20.208 118.196 20.208ZM130.627 22.192C129.869 22.192 129.165 22.0533 128.515 21.776C127.875 21.4987 127.32 21.1147 126.851 20.624C126.392 20.1227 126.056 19.5413 125.843 18.88L127.651 18.096C127.939 18.7787 128.355 19.3173 128.899 19.712C129.443 20.096 130.056 20.288 130.739 20.288C131.123 20.288 131.453 20.2293 131.731 20.112C132.019 19.984 132.237 19.8133 132.387 19.6C132.547 19.3867 132.627 19.1307 132.627 18.832C132.627 18.48 132.52 18.192 132.307 17.968C132.104 17.7333 131.795 17.552 131.379 17.424L129.091 16.688C128.163 16.4 127.464 15.968 126.995 15.392C126.525 14.816 126.291 14.1387 126.291 13.36C126.291 12.6773 126.456 12.0747 126.787 11.552C127.128 11.0293 127.597 10.624 128.195 10.336C128.803 10.0373 129.496 9.888 130.275 9.888C130.989 9.888 131.645 10.016 132.243 10.272C132.84 10.5173 133.352 10.864 133.779 11.312C134.216 11.7493 134.541 12.2667 134.755 12.864L132.963 13.664C132.728 13.0667 132.376 12.608 131.907 12.288C131.437 11.9573 130.893 11.792 130.275 11.792C129.912 11.792 129.592 11.856 129.315 11.984C129.037 12.1013 128.819 12.272 128.659 12.496C128.509 12.7093 128.435 12.9653 128.435 13.264C128.435 13.5947 128.541 13.888 128.755 14.144C128.968 14.3893 129.293 14.5813 129.731 14.72L131.923 15.408C132.872 15.7173 133.581 16.144 134.051 16.688C134.531 17.232 134.771 17.904 134.771 18.704C134.771 19.3867 134.595 19.9893 134.243 20.512C133.891 21.0347 133.405 21.4453 132.787 21.744C132.168 22.0427 131.448 22.192 130.627 22.192Z" fill="#0F172A"/>
</svg>
