<svg width="22" height="19" viewBox="0 0 22 19" fill="none" xmlns="http://www.w3.org/2000/svg">
<path fill-rule="evenodd" clip-rule="evenodd" d="M0 3.83643C0 2.17957 1.34315 0.836426 3 0.836426H19C20.6569 0.836426 22 2.17957 22 3.83643V15.8364C22 17.4933 20.6569 18.8364 19 18.8364H3C1.34315 18.8364 0 17.4933 0 15.8364V3.83643ZM3 2.83643C2.44772 2.83643 2 3.28414 2 3.83643V5.27024L11 10.6702L20 5.27024V3.83643C20 3.28414 19.5523 2.83643 19 2.83643H3ZM20 7.60262L12.029 12.3852C11.3956 12.7652 10.6044 12.7652 9.97101 12.3852L2 7.60262V15.8364C2 16.3887 2.44772 16.8364 3 16.8364H19C19.5523 16.8364 20 16.3887 20 15.8364V7.60262Z" fill="white"/>
</svg>
