<svg width="20" height="20" viewBox="0 0 20 20" fill="none" xmlns="http://www.w3.org/2000/svg">
<path fill-rule="evenodd" clip-rule="evenodd" d="M1.47541 1.56348C2.54817 0.0616125 4.74809 -0.028643 5.94027 1.3803L7.84691 3.6336C8.39995 4.28719 8.47562 5.22031 8.03512 5.95447L6.56633 8.40246C6.68408 8.59514 6.84362 8.82506 7.04773 9.08731C7.4117 9.55497 7.87676 10.0741 8.3954 10.5928C9.26881 11.4662 10.2466 12.2909 11.0883 12.8482L13.4886 11.408C14.2228 10.9675 15.1559 11.0432 15.8095 11.5962L18.1716 13.5949C19.5253 14.7404 19.4386 16.8541 17.9955 17.8849C15.7702 19.4745 12.7792 19.8525 10.3288 18.3569C8.63945 17.3259 6.56944 15.8704 4.71755 14.0185C3.00067 12.3016 1.74884 10.5218 0.875743 9.04134C-0.562547 6.60249 -0.0571408 3.70905 1.47541 1.56348ZM4.4135 2.67219C4.06354 2.2586 3.41778 2.2851 3.10288 2.72596C1.91146 4.39394 1.65611 6.42744 2.59848 8.02537C3.40484 9.39269 4.55782 11.0303 6.13176 12.6042C7.8361 14.3086 9.76576 15.6702 11.3707 16.6497C13.0244 17.659 15.1458 17.4626 16.8331 16.2574C17.2151 15.9845 17.2381 15.4249 16.8797 15.1216L14.5176 13.123L11.596 14.876C11.2867 15.0615 10.9014 15.0662 10.5877 14.888C9.4394 14.236 8.09722 13.123 6.98119 12.007C6.41772 11.4435 5.89481 10.8623 5.46941 10.3157C5.05585 9.78431 4.68983 9.22951 4.49303 8.72505C4.38055 8.4367 4.40792 8.11252 4.56716 7.84711L6.32014 4.92548L4.4135 2.67219Z" fill="white"/>
</svg>
